<?xml version="1.0" encoding="UTF-8" standalone="no"?>
<svg width="37px" height="37px" viewBox="0 0 37 37" version="1.1" xmlns="http://www.w3.org/2000/svg" xmlns:xlink="http://www.w3.org/1999/xlink" xmlns:sketch="http://www.bohemiancoding.com/sketch/ns">
    <!-- Generator: Sketch 3.4.2 (15855) - http://www.bohemiancoding.com/sketch -->
    <title>Imported Layers Copy 16 + Apple TV Copy</title>
    <desc>Created with Sketch.</desc>
    <defs></defs>
    <g id="Assets" stroke="none" stroke-width="1" fill="none" fill-rule="evenodd" sketch:type="MSPage">
        <g id="Setup" sketch:type="MSArtboardGroup" transform="translate(-752.000000, -891.000000)" fill="#000000">
            <g id="Imported-Layers-Copy-16-+-Apple-TV-Copy" sketch:type="MSLayerGroup" transform="translate(752.000000, 891.000000)">
                <path d="M28.6250477,0 L8.37495225,0 C3.74953164,0 4.61852778e-14,3.74953164 4.61852778e-14,8.37495225 L4.61852778e-14,28.2491861 C4.61852778e-14,32.8742702 3.74953164,36.6238018 8.37495225,36.6238018 L28.6250477,36.6238018 C33.2504684,36.6238018 37,32.8742702 37,28.2491861 L37,8.37495225 C37,3.74953164 33.2504684,0 28.6250477,0 L28.6250477,0 Z M12.5733644,14.4143127 C12.8391931,14.0290293 13.2833627,13.7655559 13.9065461,13.6238928 C13.9206788,13.6736936 13.9294276,13.7160916 13.933129,13.7514233 C13.9364939,13.7867549 13.9385129,13.8187217 13.9385129,13.846987 C13.9385129,14.0734462 13.8853471,14.317403 13.7790156,14.5788574 C13.6730206,14.8406482 13.5098219,15.084605 13.2904291,15.3110642 C13.0848324,15.5018553 12.8903399,15.6293858 12.7062788,15.6929828 C12.5716819,15.7283144 12.3909856,15.7565798 12.1645265,15.7777788 C12.1715928,15.2545335 12.3078721,14.7999327 12.5733644,14.4143127 L12.5733644,14.4143127 Z M15.8730061,21.1623256 C15.7619637,21.3955147 15.6283763,21.6303861 15.4729169,21.8672766 C14.998463,22.5853508 14.5203078,22.9443879 14.0387875,22.9443879 C13.8385747,22.9443879 13.5754379,22.8848288 13.249377,22.76672 C12.930719,22.6556776 12.6527765,22.6001564 12.4158861,22.6001564 C12.1712563,22.6001564 11.9044181,22.659379 11.6153713,22.7774878 C11.3041161,22.9033358 11.0594863,22.9662598 10.8818185,22.9662598 C10.3185307,22.9662598 9.76264574,22.489114 9.21416359,21.5341494 C8.66568144,20.5869241 8.39177686,19.654168 8.39177686,18.7362175 C8.39177686,17.8926317 8.599056,17.2004675 9.01428727,16.6600611 C9.43658488,16.1270576 9.96622347,15.8608923 10.603876,15.8608923 C10.8777806,15.8608923 11.2078794,15.916077 11.5931628,16.0271194 C11.9858491,16.1381618 12.2415831,16.193683 12.3600284,16.193683 C12.5084214,16.193683 12.7715582,16.1310955 13.1494389,16.004911 C13.5273195,15.8793994 13.849679,15.8161389 14.1165172,15.8161389 C14.5613598,15.8161389 14.9577475,15.9349206 15.3060168,16.1714746 C15.4022536,16.2455028 15.4988268,16.3269339 15.5950636,16.4157678 C15.6913003,16.5046018 15.7878736,16.6085778 15.8841103,16.7266866 C15.5950636,16.9783827 15.3837465,17.2004675 15.2504956,17.3929409 C15.0058659,17.733471 14.8837192,18.11438 14.8837192,18.5363411 C14.8837192,18.9953164 15.0132687,19.4098747 15.2727041,19.780016 C15.5247367,20.1427545 15.8174849,20.3759435 16.1509485,20.4795831 C16.0765838,20.7013314 15.9840485,20.9291366 15.8730061,21.1623256 L15.8730061,21.1623256 Z M21.7969497,17.0574583 L20.1043944,17.0574583 L20.1043944,20.1676549 C20.1043944,21.0209989 20.335901,21.4695429 21.0159515,21.4695429 C21.3194674,21.4695429 21.550974,21.4261354 21.7101348,21.382728 L21.7390731,22.7424926 C21.4786282,22.8437767 21.0159515,22.9161225 20.4516543,22.9161225 C19.800542,22.9161225 19.2510504,22.6990851 18.9182597,22.3373561 C18.5420615,21.9325561 18.3684316,21.295913 18.3684316,20.3702232 L18.3684316,17.0574583 L17.3559268,17.0574583 L17.3559268,15.726632 L18.3684316,15.726632 L18.3684316,14.1353608 L20.1043944,13.7157551 L20.1043944,15.726632 L21.7969497,15.726632 L21.7969497,17.0574583 L21.7969497,17.0574583 Z M26.759199,22.7714309 L25.008767,22.7714309 L22.3901853,15.726632 L24.3142473,15.726632 L25.4569745,19.2998418 C25.6595427,19.9216792 25.8042343,20.4859765 25.9344568,21.0644064 L25.9778643,21.0644064 C26.1080867,20.4859765 26.2672475,19.9361483 26.4553466,19.2998418 L27.5691355,15.726632 L29.4497899,15.726632 L26.759199,22.7714309 L26.759199,22.7714309 Z" id="Imported-Layers-Copy-16" sketch:type="MSShapeGroup"></path>
            </g>
        </g>
    </g>
</svg>