<?xml version="1.0" encoding="UTF-8" standalone="no"?>
<svg width="55px" height="25px" viewBox="0 0 55 25" version="1.1" xmlns="http://www.w3.org/2000/svg" xmlns:xlink="http://www.w3.org/1999/xlink" xmlns:sketch="http://www.bohemiancoding.com/sketch/ns">
    <!-- Generator: Sketch 3.4.2 (15855) - http://www.bohemiancoding.com/sketch -->
    <title>Imported Layers Copy 18 + DVD &amp; BluRay Copy</title>
    <desc>Created with Sketch.</desc>
    <defs></defs>
    <g id="Assets" stroke="none" stroke-width="1" fill="none" fill-rule="evenodd" sketch:type="MSPage">
        <g id="Setup" sketch:type="MSArtboardGroup" transform="translate(-376.000000, -902.000000)" fill="#000000">
            <g id="Imported-Layers-Copy-18-+-DVD-&amp;-BluRay-Copy" sketch:type="MSLayerGroup" transform="translate(376.000000, 902.000000)">
                <path d="M52.4683376,22.9046456 L1.65666236,22.9046456 C0.74181659,22.9046456 0,22.162829 0,21.2479833 L0,11.6581171 C0,10.7432713 0.74181659,10.0018229 1.65666236,10.0018229 L6.12780999,10.0018229 C6.32403244,12.1124107 7.19249167,14.0267761 8.51708526,15.5310255 L4.9795589,15.5310255 L4.9795589,16.2673199 L26.7002432,16.2673199 L26.7002432,15.5310255 L23.1627168,15.5310255 C24.4873104,14.0267761 25.3557696,12.1124107 25.5519921,10.0018229 L52.4683376,10.0018229 C53.3831834,10.0018229 54.125,10.7432713 54.125,11.6581171 L54.125,21.2479833 C54.125,22.162829 53.3831834,22.9046456 52.4683376,22.9046456 L52.4683376,22.9046456 Z M47.5292749,13.5982528 C46.1472504,13.5982528 45.0269785,14.7185247 45.0269785,16.1005492 C45.0269785,17.4825738 46.1472504,18.6028457 47.5292749,18.6028457 C48.9112995,18.6028457 50.0315714,17.4825738 50.0315714,16.1005492 C50.0315714,14.7185247 48.9112995,13.5982528 47.5292749,13.5982528 L47.5292749,13.5982528 Z M47.5292749,18.0130739 C46.4730606,18.0130739 45.6167503,17.1567635 45.6167503,16.1005492 C45.6167503,15.044335 46.4730606,14.1880246 47.5292749,14.1880246 C48.5854892,14.1880246 49.4417996,15.044335 49.4417996,16.1005492 C49.4417996,17.1567635 48.5854892,18.0130739 47.5292749,18.0130739 L47.5292749,18.0130739 Z M9.58876173,15.5310255 C7.88976245,13.8879846 6.83170742,11.5866965 6.83170742,9.03654095 C6.83170742,4.04556948 10.877645,0 15.8686165,0 C20.859588,0 24.9055256,4.04556948 24.9055256,9.03654095 C24.9055256,11.5866965 23.8474706,13.8879846 22.1488394,15.5310255 L9.58876173,15.5310255 L9.58876173,15.5310255 Z M15.8686165,6.67266783 C14.5627984,6.67266783 13.5043753,7.73109101 13.5043753,9.03654095 C13.5043753,10.342359 14.5627984,11.4007822 15.8686165,11.4007822 C17.1744346,11.4007822 18.2328578,10.342359 18.2328578,9.03654095 C18.2328578,7.73109101 17.1744346,6.67266783 15.8686165,6.67266783 L15.8686165,6.67266783 Z M5.34770609,23.6302637 L9.39732519,23.6302637 L9.39732519,24.7347053 L5.34770609,24.7347053 L5.34770609,23.6302637 Z M44.7394555,23.6302637 L48.7890746,23.6302637 L48.7890746,24.7347053 L44.7394555,24.7347053 L44.7394555,23.6302637 Z" id="Imported-Layers-Copy-18" sketch:type="MSShapeGroup"></path>
            </g>
        </g>
    </g>
</svg>