<?xml version="1.0" encoding="UTF-8" standalone="no"?>
<svg width="57px" height="23px" viewBox="0 0 57 23" version="1.1" xmlns="http://www.w3.org/2000/svg" xmlns:xlink="http://www.w3.org/1999/xlink" xmlns:sketch="http://www.bohemiancoding.com/sketch/ns">
    <!-- Generator: Sketch 3.4.2 (15855) - http://www.bohemiancoding.com/sketch -->
    <title>Receiver Icon Copy + Receiver Copy</title>
    <desc>Created with Sketch.</desc>
    <defs></defs>
    <g id="Assets" stroke="none" stroke-width="1" fill="none" fill-rule="evenodd" sketch:type="MSPage">
        <g id="Setup" sketch:type="MSArtboardGroup" transform="translate(-740.000000, -826.000000)" fill="#000000">
            <g id="Receiver-Icon-Copy-+-Receiver-Copy" sketch:type="MSLayerGroup" transform="translate(740.000000, 826.000000)">
                <g id="Receiver-Icon-Copy" sketch:type="MSShapeGroup">
                    <path d="M40.6403509,9.83386076 L15.8596491,9.83386076 C14.7653333,9.83386076 13.877193,10.7149747 13.877193,11.8006329 L13.877193,19.1150585 C13.877193,20.2007168 14.7653333,21.0818307 15.8596491,21.0818307 L40.6403509,21.0818307 C41.7356579,21.0818307 42.622807,20.2007168 42.622807,19.1150585 L42.622807,11.8006329 C42.622807,10.7149747 41.7356579,9.83386076 40.6403509,9.83386076 L40.6403509,9.83386076 Z M17.7647895,16.8100016 C16.7299474,16.8100016 15.8903772,15.978057 15.8903772,14.9504185 C15.8903772,13.9237634 16.7299474,13.0918188 17.7647895,13.0918188 C18.7996316,13.0918188 19.6392018,13.9237634 19.6392018,14.9504185 C19.6392018,15.978057 18.7996316,16.8100016 17.7647895,16.8100016 L17.7647895,16.8100016 Z M36.5981228,15.8875854 C36.1619825,15.8875854 35.808114,15.5375 35.808114,15.1048101 C35.808114,14.6721203 36.1619825,14.3210514 36.5981228,14.3210514 C37.0342632,14.3210514 37.3881316,14.6721203 37.3881316,15.1048101 C37.3881316,15.5375 37.0342632,15.8875854 36.5981228,15.8875854 L36.5981228,15.8875854 Z M39.6342544,15.8875854 C39.198114,15.8875854 38.8442456,15.5375 38.8442456,15.1048101 C38.8442456,14.6721203 39.198114,14.3210514 39.6342544,14.3210514 C40.0703947,14.3210514 40.4232719,14.6721203 40.4232719,15.1048101 C40.4232719,15.5375 40.0703947,15.8875854 39.6342544,15.8875854 L39.6342544,15.8875854 Z M17.7895702,13.8834446 C17.1928509,13.8834446 16.7091316,14.363337 16.7091316,14.9563188 C16.7091316,15.5483172 17.1928509,16.029193 17.7895702,16.029193 C18.3872807,16.029193 18.871,15.5483172 18.871,14.9563188 C18.871,14.363337 18.3872807,13.8834446 17.7895702,13.8834446 Z M16.8508772,21.6344937 L19.8245614,21.6344937 L19.8245614,22.6178797 L16.8508772,22.6178797 L16.8508772,21.6344937 Z M36.6754386,21.6344937 L39.6491228,21.6344937 L39.6491228,22.6178797 L36.6754386,22.6178797 L36.6754386,21.6344937 Z M10.8727807,0 L1.98344737,0 C0.888140351,0 0,0.880130538 0,1.96677215 L0,20.5281843 C0,21.6138426 0.888140351,22.4949565 1.98344737,22.4949565 L10.8727807,22.4949565 C11.9680877,22.4949565 12.8552368,21.6138426 12.8552368,20.5281843 L12.8552368,1.96677215 C12.8552368,0.880130538 11.9680877,0 10.8727807,0 Z M6.43703509,18.6784351 C4.76483333,18.6784351 3.40982456,17.333163 3.40982456,15.6751741 C3.40982456,14.0162017 4.76483333,12.671913 6.43703509,12.671913 C8.10923684,12.671913 9.46424561,14.0162017 9.46424561,15.6751741 C9.46424561,17.333163 8.10923684,18.6784351 6.43703509,18.6784351 Z M6.43802632,13.2835791 C5.11176316,13.2835791 4.03727193,14.3495696 4.03727193,15.6643568 C4.03727193,16.9801274 5.11176316,18.0461179 6.43802632,18.0461179 C7.76329825,18.0461179 8.83778947,16.9801274 8.83778947,15.6643568 C8.83778947,14.3495696 7.76329825,13.2835791 6.43802632,13.2835791 Z M54.4868158,0 L45.5974825,0 C44.5021754,0 43.6140351,0.880130538 43.6140351,1.96677215 L43.6140351,20.5281843 C43.6140351,21.6138426 44.5021754,22.4949565 45.5974825,22.4949565 L54.4868158,22.4949565 C55.5821228,22.4949565 56.4692719,21.6138426 56.4692719,20.5281843 L56.4692719,1.96677215 C56.4692719,0.880130538 55.5821228,0 54.4868158,0 Z M50.0510702,18.6784351 C48.3788684,18.6784351 47.0238596,17.333163 47.0238596,15.6751741 C47.0238596,14.0162017 48.3788684,12.671913 50.0510702,12.671913 C51.7232719,12.671913 53.0782807,14.0162017 53.0782807,15.6751741 C53.0782807,17.333163 51.7232719,18.6784351 50.0510702,18.6784351 Z M50.0520614,13.2835791 C48.7257982,13.2835791 47.651307,14.3495696 47.651307,15.6643568 C47.651307,16.9801274 48.7257982,18.0461179 50.0520614,18.0461179 C51.3773333,18.0461179 52.4518246,16.9801274 52.4518246,15.6643568 C52.4518246,14.3495696 51.3773333,13.2835791 50.0520614,13.2835791 Z" id="Imported-Layers"></path>
                </g>
            </g>
        </g>
    </g>
</svg>