<?xml version="1.0" encoding="UTF-8" standalone="no"?>
<svg width="37px" height="37px" viewBox="0 0 37 37" version="1.1" xmlns="http://www.w3.org/2000/svg" xmlns:xlink="http://www.w3.org/1999/xlink" xmlns:sketch="http://www.bohemiancoding.com/sketch/ns">
    <!-- Generator: Sketch 3.4.2 (15855) - http://www.bohemiancoding.com/sketch -->
    <title>Imported Layers Copy 20 + Roku Copy</title>
    <desc>Created with Sketch.</desc>
    <defs></defs>
    <g id="Assets" stroke="none" stroke-width="1" fill="none" fill-rule="evenodd" sketch:type="MSPage">
        <g id="Setup" sketch:type="MSArtboardGroup" transform="translate(-943.000000, -816.000000)" fill="#000000">
            <g id="Imported-Layers-Copy-20-+-Roku-Copy" sketch:type="MSLayerGroup" transform="translate(943.000000, 816.000000)">
                <path d="M28.6250477,0 L8.37495225,0 C3.74953164,0 0,3.74953164 0,8.37495225 L0,28.2491861 C0,32.8742702 3.74953164,36.6238018 8.37495225,36.6238018 L28.6250477,36.6238018 C33.2504684,36.6238018 37,32.8742702 37,28.2491861 L37,8.37495225 C37,3.74953164 33.2504684,0 28.6250477,0 L28.6250477,0 Z M15.1559123,17.0201192 C14.6321487,17.0201192 14.1870837,17.7204046 14.1870837,18.5871891 C14.1870837,19.4539736 14.6321487,20.1549184 15.1559123,20.1549184 C15.6913968,20.1549184 16.136127,19.4539736 16.136127,18.5871891 C16.136127,17.7204046 15.6913968,17.0201192 15.1559123,17.0201192 L15.1559123,17.0201192 Z M8.89720602,15.3541389 L8.28469739,15.3541389 L8.28469739,17.7982141 L8.89720602,17.7982141 C9.57702697,17.7982141 10.1329397,17.2502507 10.1329397,16.5816166 C10.1329397,15.9017727 9.57702697,15.3541389 8.89720602,15.3541389 L8.89720602,15.3541389 Z M10.6707684,21.4536115 L8.88515008,19.0151413 L8.28469739,19.0151413 L8.28469739,21.4483363 L6.30216537,21.4483363 L6.30216537,14.1382008 L9.14200854,14.1382008 C10.7792719,14.1382008 12.1154717,15.233798 12.1154717,16.5816166 C12.1154717,17.4035617 11.6030943,18.1378063 10.823477,18.5868594 L12.9202055,21.4536115 L10.6707684,21.4536115 L10.6707684,21.4536115 Z M15.1559123,21.5686773 C13.473774,21.5686773 12.1151368,20.2429486 12.1151368,18.5871891 C12.1151368,16.9327484 13.473774,15.6060307 15.1559123,15.6060307 C16.8383854,15.6060307 18.2070692,16.9327484 18.2070692,18.5871891 C18.2070692,20.2429486 16.8383854,21.5686773 15.1559123,21.5686773 L15.1559123,21.5686773 Z M30.6243504,21.4483363 L30.2010531,21.4483363 L29.3099183,20.6920017 C28.9422122,21.1084144 28.1853672,21.5686773 27.3605401,21.5686773 C25.6234804,21.5686773 24.9336128,20.5271511 24.9336128,19.3985838 L24.9336128,15.9990345 L22.4243033,18.4671779 L25.4540275,21.4483363 L22.959453,21.4483363 L20.5753913,19.1246021 L20.5753913,21.4483363 L18.593529,21.4483363 L18.593529,15.7197776 L20.5753913,15.7197776 L20.5753913,17.9739448 L22.858652,15.7273607 L26.9161449,15.7273607 L26.9161449,18.8615005 C26.9161449,19.7711462 27.1398495,20.0556784 27.6274452,20.0556784 C28.1080083,20.0556784 28.4191185,19.8146668 28.6421533,19.4312242 L28.6421533,15.7273607 L30.6243504,15.7273607 L30.6243504,21.4483363 L30.6243504,21.4483363 Z" id="Imported-Layers-Copy-20" sketch:type="MSShapeGroup"></path>
            </g>
        </g>
    </g>
</svg>