<?xml version="1.0" encoding="UTF-8" standalone="no"?>
<svg width="50px" height="10px" viewBox="0 0 50 10" version="1.1" xmlns="http://www.w3.org/2000/svg" xmlns:xlink="http://www.w3.org/1999/xlink" xmlns:sketch="http://www.bohemiancoding.com/sketch/ns">
    <!-- Generator: Sketch 3.4.2 (15855) - http://www.bohemiancoding.com/sketch -->
    <title>Imported Layers Copy 15 + Soundbar Copy</title>
    <desc>Created with Sketch.</desc>
    <defs></defs>
    <g id="Assets" stroke="none" stroke-width="1" fill="none" fill-rule="evenodd" sketch:type="MSPage">
        <g id="Setup" sketch:type="MSArtboardGroup" transform="translate(-1116.000000, -830.000000)" fill="#000000">
            <g id="Imported-Layers-Copy-15-+-Soundbar-Copy" sketch:type="MSLayerGroup" transform="translate(1116.000000, 830.000000)">
                <path d="M10.5327064,3.65901967 C9.93248596,3.65901967 9.4459371,4.14556853 9.4459371,4.74578898 C9.4459371,5.34600944 9.93248596,5.83341945 10.5327064,5.83341945 C11.1329269,5.83341945 11.6194757,5.34600944 11.6194757,4.74578898 C11.6194757,4.14556853 11.1329269,3.65901967 10.5327064,3.65901967 L10.5327064,3.65901967 Z M48.2777031,2.48689958e-14 L1.72229686,2.48689958e-14 C0.770727843,2.48689958e-14 4.26325641e-14,0.770727843 4.26325641e-14,1.72143571 L4.26325641e-14,7.6693879 C4.26325641e-14,8.62009576 0.770727843,9.39168475 1.72229686,9.39168475 L48.2777031,9.39168475 C49.2292722,9.39168475 50,8.62009576 50,7.6693879 L50,1.72143571 C50,0.770727843 49.2292722,2.48689958e-14 48.2777031,2.48689958e-14 L48.2777031,2.48689958e-14 Z M10.4948159,6.70059591 C9.40976887,6.70059591 8.53053632,5.82653026 8.53053632,4.74923358 C8.53053632,3.6719369 9.40976887,2.79873239 10.4948159,2.79873239 C11.5798629,2.79873239 12.4590954,3.6719369 12.4590954,4.74923358 C12.4590954,5.82653026 11.5798629,6.70059591 10.4948159,6.70059591 L10.4948159,6.70059591 Z M25,7.66249871 C23.3844855,7.66249871 22.0746788,6.35785884 22.0746788,4.74751128 C22.0746788,3.13802487 23.3844855,1.83252385 25,1.83252385 C26.6155145,1.83252385 27.9253212,3.13802487 27.9253212,4.74751128 C27.9253212,6.35785884 26.6155145,7.66249871 25,7.66249871 L25,7.66249871 Z M40.1510454,6.70059591 C39.0659984,6.70059591 38.1859047,5.82653026 38.1859047,4.74923358 C38.1859047,3.6719369 39.0659984,2.79873239 40.1510454,2.79873239 C41.2360925,2.79873239 42.115325,3.6719369 42.115325,4.74923358 C42.115325,5.82653026 41.2360925,6.70059591 40.1510454,6.70059591 L40.1510454,6.70059591 Z M25.0043057,2.84954015 C23.9588716,2.84954015 23.1115015,3.6969102 23.1115015,4.74234439 C23.1115015,5.78777858 23.9588716,6.63600978 25.0043057,6.63600978 C26.0497399,6.63600978 26.8979711,5.78777858 26.8979711,4.74234439 C26.8979711,3.6969102 26.0497399,2.84954015 25.0043057,2.84954015 L25.0043057,2.84954015 Z M40.148462,3.65901967 C39.5482415,3.65901967 39.0616927,4.14556853 39.0616927,4.74578898 C39.0616927,5.34600944 39.5482415,5.83341945 40.148462,5.83341945 C40.7495436,5.83341945 41.2360925,5.34600944 41.2360925,4.74578898 C41.2360925,4.14556853 40.7495436,3.65901967 40.148462,3.65901967 L40.148462,3.65901967 Z" id="Imported-Layers-Copy-15" sketch:type="MSShapeGroup"></path>
            </g>
        </g>
    </g>
</svg>