<?xml version="1.0" encoding="UTF-8" standalone="no"?>
<svg width="61px" height="17px" viewBox="0 0 61 17" version="1.1" xmlns="http://www.w3.org/2000/svg" xmlns:xlink="http://www.w3.org/1999/xlink" xmlns:sketch="http://www.bohemiancoding.com/sketch/ns">
    <!-- Generator: Sketch 3.4.2 (15855) - http://www.bohemiancoding.com/sketch -->
    <title>Set Top Box</title>
    <desc>Created with Sketch.</desc>
    <defs></defs>
    <g id="Assets" stroke="none" stroke-width="1" fill="none" fill-rule="evenodd" sketch:type="MSPage">
        <g id="Setup" sketch:type="MSArtboardGroup" transform="translate(-373.000000, -824.000000)" fill="#000000">
            <g id="Set-Top-Box" sketch:type="MSLayerGroup" transform="translate(373.000000, 824.000000)">
                <path d="M5.98706757,16.4943176 L10.5208514,16.4943176 L10.5208514,15.2578311 L5.98706757,15.2578311 L5.98706757,16.4943176 Z M58.7285743,0 L1.85431757,0 C0.830094595,0 0,0.829682432 0,1.85308108 L0,12.5808378 C0,13.6042365 0.830094595,14.4339189 1.85431757,14.4339189 L58.7285743,14.4339189 C59.7527973,14.4339189 60.5828919,13.6042365 60.5828919,12.5808378 L60.5828919,1.85308108 C60.5828919,0.829682432 59.7527973,0 58.7285743,0 L58.7285743,0 Z M6.22406081,9.62192568 C4.67721622,9.62192568 3.42341892,8.36854054 3.42341892,6.82252027 C3.42341892,5.2765 4.67721622,4.02311486 6.22406081,4.02311486 C7.77090541,4.02311486 9.0247027,5.2765 9.0247027,6.82252027 C9.0247027,8.36854054 7.77090541,9.62192568 6.22406081,9.62192568 L6.22406081,9.62192568 Z M6.22406081,4.76335811 C5.08608108,4.76335811 4.16366216,5.68536486 4.16366216,6.82252027 C4.16366216,7.95967568 5.08608108,8.88168243 6.22406081,8.88168243 C7.36204054,8.88168243 8.28445946,7.95967568 8.28445946,6.82252027 C8.28445946,5.68536486 7.36204054,4.76335811 6.22406081,4.76335811 L6.22406081,4.76335811 Z M50.0884189,16.4943176 L54.6222027,16.4943176 L54.6222027,15.2578311 L50.0884189,15.2578311 L50.0884189,16.4943176 Z" id="OTT_Box-Icon" sketch:type="MSShapeGroup"></path>
            </g>
        </g>
    </g>
</svg>