<?xml version="1.0" encoding="UTF-8" standalone="no"?>
<svg width="38px" height="37px" viewBox="0 0 38 37" version="1.1" xmlns="http://www.w3.org/2000/svg" xmlns:xlink="http://www.w3.org/1999/xlink" xmlns:sketch="http://www.bohemiancoding.com/sketch/ns">
    <!-- Generator: Sketch 3.4.2 (15855) - http://www.bohemiancoding.com/sketch -->
    <title>Imported Layers Copy 17 + Xbox Copy</title>
    <desc>Created with Sketch.</desc>
    <defs></defs>
    <g id="Assets" stroke="none" stroke-width="1" fill="none" fill-rule="evenodd" sketch:type="MSPage">
        <g id="Setup" sketch:type="MSArtboardGroup" transform="translate(-943.000000, -893.000000)" fill="#000000">
            <g id="Imported-Layers-Copy-17-+-Xbox-Copy" sketch:type="MSLayerGroup" transform="translate(943.000000, 893.000000)">
                <path d="M13.682375,10.73025 C13.6067143,10.60675 13.5358036,10.4849464 13.4564107,10.3604286 C11.8278393,8.20019643 8.85942857,5.59380357 5.89746429,5.023125 C2.26914286,8.39664286 0,13.1826071 0,18.4954821 C0,22.8125536 1.49998214,26.7805 4.00730357,29.9277143 C3.2965,23.3184286 11.2279821,13.6959464 13.682375,10.73025 L13.682375,10.73025 Z M20.7771786,16.7315357 C20.7771786,16.731875 20.7768393,16.7325536 20.7768393,16.7328929 C20.113875,16.1693393 19.4397143,15.5956071 18.7119464,15.0086429 C17.9868929,15.5915357 17.3144286,16.1615357 16.6531607,16.7210179 C16.6531607,16.7206786 16.6528214,16.7203393 16.6524821,16.7196607 C11.8400536,20.9651429 5.688125,26.5816786 5.75564286,31.8341607 C9.11728571,35.0258214 13.6786429,36.9909643 18.7071964,36.9909643 C23.7255714,36.9909643 28.2784464,35.033625 31.6383929,31.8538393 C31.7015,26.5983036 25.5726429,20.9793929 20.7771786,16.7315357 L20.7771786,16.7315357 Z M37.4147321,18.4954821 C37.4147321,8.28060714 29.039125,0 18.7071964,0 C14.4545893,0 10.5351607,1.40532143 7.39303571,3.76878571 C7.87210714,3.41117857 8.36814286,3.07426786 8.8825,2.7645 L8.91744643,2.7645 C12.8752143,2.64880357 16.5048929,4.43107143 18.7204286,5.80110714 C20.9288393,4.43005357 24.5449464,2.64880357 28.4867679,2.7645 L28.5217143,2.7645 C29.59725,3.41423214 30.5961071,4.17796429 31.5145536,5.02108929 C28.5566607,5.58532143 25.5896071,8.20053571 23.9630714,10.3665357 C23.8836786,10.4913929 23.8131071,10.6131964 23.7377857,10.7370357 C26.1853929,13.7068036 34.0988929,23.3469286 33.3799464,29.9619821 C35.9038929,26.8093393 37.4147321,22.8281607 37.4147321,18.4954821 L37.4147321,18.4954821 Z" id="Imported-Layers-Copy-17" sketch:type="MSShapeGroup"></path>
            </g>
        </g>
    </g>
</svg>